<svg preserveAspectRatio="none" width="100%" height="100%" overflow="visible" style="display: block;" viewBox="0 0 32 32" fill="none" xmlns="http://www.w3.org/2000/svg">
<g id="Account Active">
<path id="Account Icon" fill-rule="evenodd" clip-rule="evenodd" d="M16.9707 7.80851C16.3829 7.41512 15.6171 7.41512 15.0293 7.80851L4.72088 14.7456C3.91672 15.2838 2.83021 15.0657 2.29409 14.2584C1.75798 13.4511 1.97529 12.3604 2.77945 11.8222L13.0879 4.88513C14.8513 3.70496 17.1487 3.70496 18.9121 4.88513L29.2206 11.8222C30.0247 12.3604 30.242 13.4511 29.7059 14.2584C29.1698 15.0657 28.0833 15.2838 27.2791 14.7456L16.9707 7.80851ZM8.41676 15.823C9.38325 15.823 10.1667 16.6096 10.1667 17.5798V26.2433C10.1667 27.2135 9.38325 28 8.41676 28C7.45027 28 6.66678 27.2135 6.66678 26.2433V17.5798C6.66678 16.6096 7.45027 15.823 8.41676 15.823ZM16 15.823C16.9665 15.823 17.75 16.6096 17.75 17.5798V26.2433C17.75 27.2135 16.9665 28 16 28C15.0335 28 14.25 27.2135 14.25 26.2433V17.5798C14.25 16.6096 15.0335 15.823 16 15.823ZM23.5832 15.823C24.5497 15.823 25.3332 16.6096 25.3332 17.5798V26.2433C25.3332 27.2135 24.5497 28 23.5832 28C22.6168 28 21.8333 27.2135 21.8333 26.2433V17.5798C21.8333 16.6096 22.6168 15.823 23.5832 15.823Z" fill="var(--fill-0, black)" fill-opacity="0.4"/>
</g>
</svg>
