<svg width="10" height="10" viewBox="0 0 10 10" fill="none" xmlns="http://www.w3.org/2000/svg">
<g clip-path="url(#clip0_9859_8144)">
<path d="M3.76864 7.50822L4.8883 7.54262C5.62653 7.54262 6.33541 7.25939 6.88585 6.74455C7.41751 6.24002 7.7121 5.56694 7.7121 4.84111C7.7121 4.11528 7.41634 3.4422 6.88585 2.93767C6.34949 2.43314 5.63592 2.15451 4.87304 2.15451C3.54917 2.15451 2.41777 2.99615 2.12202 4.19325L2.10206 4.29874C2.06803 4.4673 2.10206 4.64045 2.20065 4.78951C2.29454 4.92367 2.44125 5.01999 2.61377 5.05439C2.64781 5.06356 2.69241 5.06356 2.73231 5.06356C2.97878 5.06356 3.20999 4.92367 3.31796 4.70351L3.43063 4.46271C3.76982 3.79422 4.27214 3.43876 4.88243 3.43876C5.28617 3.43876 5.65939 3.58782 5.9352 3.8527C6.2157 4.12216 6.36827 4.48221 6.36827 4.85716C6.36827 5.23212 6.2157 5.58758 5.9352 5.85704C5.63944 6.1265 5.27091 6.27557 4.88713 6.27557H2.67832C2.31919 6.27557 2.0293 6.56452 2.0293 6.91999C2.0293 7.64123 2.31919 8.3189 2.85554 8.82343C3.37195 9.32337 4.10548 9.60659 4.86366 9.60659H5.05027C5.4094 9.60659 5.69929 9.31763 5.69929 8.96217C5.69929 8.60671 5.4094 8.31775 5.05027 8.31775H4.88243C4.4787 8.31775 4.08553 8.18818 3.82967 7.90381C3.75925 7.82584 3.70761 7.72379 3.6724 7.64238C3.64541 7.57816 3.69588 7.50707 3.76747 7.50936L3.76864 7.50822Z" fill="#808080"/>
<path d="M3.0433 1.39428H6.68513C7.05953 1.39428 7.35881 1.11106 7.35881 0.764768C7.35881 0.41848 7.05366 0.135257 6.68513 0.135257H3.0433C2.66891 0.134111 2.36846 0.417333 2.36846 0.763622C2.36846 1.10991 2.6736 1.39313 3.04213 1.39313L3.0433 1.39428Z" fill="#808080"/>
</g>
<defs>
<clipPath id="clip0_9859_8144">
<rect width="9.74194" height="9.74194" fill="white"/>
</clipPath>
</defs>
</svg>
